<svg width="245" height="53" viewBox="0 0 245 53" fill="none" xmlns="http://www.w3.org/2000/svg">
<path d="M207 0H245V52H207V0Z" fill="black"/>
<path d="M159 18H207V52H159V18Z" fill="black"/>
<path d="M5.37598 18V3.648H0.47998V1.2H13.056V3.648H8.15998V18H5.37598Z" fill="black"/>
<path d="M14.8909 18V4.56H17.6749V10.104H20.2189V6.912L22.5709 4.56H29.8669L32.2189 6.912V15.648L29.8669 18H22.5709L20.2189 15.648V12.456H17.6749V18H14.8909ZM23.0029 15.648H29.4349V6.912H23.0029V15.648Z" fill="black"/>
<path d="M34.7659 18V4.56H38.0779L42.0379 11.088L45.9979 4.56H49.3099V18H46.6459V7.656L42.8059 14.112H41.2699L37.4059 7.656V18H34.7659Z" fill="black"/>
<path d="M51.8484 15.648V6.912L54.2004 4.56H63.6084V12.048H54.6324V15.6H63.1284V18H54.2004L51.8484 15.648ZM54.6324 10.272L61.0884 10.032V6.864H54.6324V10.272Z" fill="black"/>
<path d="M66.1487 18V4.56H68.9327V10.056H75.6047V4.56H78.3887V18H75.6047V12.48H68.9327V18H66.1487Z" fill="black"/>
<path d="M80.9344 15.648V6.912L83.2864 4.56H92.0224V7.056H83.7184V15.504H92.0224V18H83.2864L80.9344 15.648Z" fill="black"/>
<path d="M94.0393 18V4.56H96.8233V9.816H100.735L104.023 4.56H107.191L103.159 10.752L107.383 18H104.239L100.999 12.216H96.8233V18H94.0393Z" fill="black"/>
<path d="M121.882 18H119.122V7.704L112.138 18H108.922V4.56H111.682V14.904L118.666 4.56H121.882V18Z" fill="black"/>
<path d="M137.538 18H134.778V7.704L127.794 18H124.578V4.56H127.338V14.904L134.322 4.56H137.538V18ZM133.362 0.0479994H135.954L134.13 3.072H127.986L126.162 0.0479994H128.754L129.378 1.392H132.738L133.362 0.0479994Z" fill="black"/>
<path d="M1.31998 46.744V34.456L3.57598 32.2H12.312V34.744H4.15198V46.456H12.552V49H3.57598L1.31998 46.744Z" fill="black"/>
<path d="M21.3542 49H18.5702V38.008H13.7222V35.56H26.2022V38.008H21.3542V49Z" fill="black"/>
<path d="M28.0159 52.36V35.56H37.9039L40.3519 38.008V46.552L37.9039 49H30.7999V52.36H28.0159ZM37.5679 37.96H30.7999V46.6H37.5679V37.96Z" fill="black"/>
<path d="M42.7547 46.648V37.912L45.1067 35.56H52.4027L54.7547 37.912V46.648L52.4027 49H45.1067L42.7547 46.648ZM45.5387 46.648H51.9707V37.912H45.5387V46.648Z" fill="black"/>
<path d="M70.2493 49H67.4893V38.704L60.5053 49H57.2893V35.56H60.0493V45.904L67.0333 35.56H70.2493V49ZM66.0733 31.048H68.6653L66.8413 34.072H60.6973L58.8733 31.048H61.4653L62.0893 32.392H65.4493L66.0733 31.048Z" fill="black"/>
<path d="M72.9455 49V32.2H85.8575V49H83.0735V34.648H75.7295V49H72.9455Z" fill="black"/>
<path d="M88.5549 52.36V35.56H98.4429L100.891 38.008V46.552L98.4429 49H91.3389V52.36H88.5549ZM98.1069 37.96H91.3389V46.6H98.1069V37.96Z" fill="black"/>
<path d="M103.294 46.648V37.912L105.646 35.56H112.942L115.294 37.912V46.648L112.942 49H105.646L103.294 46.648ZM106.078 46.648H112.51V37.912H106.078V46.648Z" fill="black"/>
<path d="M117.684 46.648V37.912L120.036 35.56H129.444V43.048H120.468V46.6H128.964V49H120.036L117.684 46.648ZM120.468 41.272L126.924 41.032V37.864H120.468V41.272Z" fill="black"/>
<path d="M131.985 49V35.56H134.769V40.816H138.681L141.969 35.56H145.137L141.105 41.752L145.329 49H142.185L138.945 43.216H134.769V49H131.985Z" fill="black"/>
<path d="M153.635 49H150.851V38.008H146.003V35.56H158.483V38.008H153.635V49Z" fill="black"/>
<path d="M160.273 46.744V34.456L162.529 32.2H171.265V34.744H163.105V46.456H171.505V49H162.529L160.273 46.744Z" fill="white"/>
<path d="M173.395 46.648V37.912L175.747 35.56H185.155V43.048H176.179V46.6H184.675V49H175.747L173.395 46.648ZM176.179 41.272L182.635 41.032V37.864H176.179V41.272Z" fill="white"/>
<path d="M187.696 52.36V35.56H197.584L200.032 38.008V46.552L197.584 49H190.48V52.36H187.696ZM197.248 37.96H190.48V46.6H197.248V37.96Z" fill="white"/>
<path d="M202.578 35.56H212.37L214.338 37.528V40.936L212.97 41.968L214.818 43.432V47.032L212.85 49H202.578V35.56ZM205.338 41.08H211.602V37.816H205.338V41.08ZM205.338 46.744H212.034V43.24H205.338V46.744Z" fill="white"/>
<path d="M230.187 49H227.427V38.704L220.443 49H217.227V35.56H219.987V45.904L226.971 35.56H230.187V49Z" fill="white"/>
<path d="M232.739 46.648V37.912L235.091 35.56H243.827V38.056H235.523V46.504H243.827V49H235.091L232.739 46.648Z" fill="white"/>
</svg>
